Patient4_TMGait_0pt8_01_left_37_EMG.mot
version=1
nRows=26
nColumns=33
inDegrees=no
endheader
time	1LAddLong	2LGlutMax	3LGlutMed	4LIliopsoas	5LSemiMemb	6LBicFemLong	7LRecFem	8LVastMed	9LVastLat	10LGasMed	11LTibAnt	12lTibPost	13LPeroneusLong	14LSol	15LExtDigLong	16LFlexDigLong	17RAddLong	18RGlutMax	19RGlutMed	20RIliopsoas	21RSemiMemb	22RBicFemLong	23RRecFem	24RVastMed	25RVastLat	26RGasMed	27RTibAnt	28RTibPost	29RPeroneusLong	30RSol	31RExtDigLong	32RFlexDigLong
42.103	-0.068512	0.5098	-0.077362	-0.003204	-0.074921	-0.084229	0.013123	-0.006866	0.15808	-0.048218	0.041962	-0.009613	0.10254	0.000305	0.026398	-0.007172	0.033875	-0.15274	-0.3183	0.23987	-0.12573	0.082703	0.080719	-0.21805	0.075378	-0.011139	0.059967	-0.007629	0.38925	0.20111	-0.000763	-0.004883
42.104	0.030823	0.504	-0.050049	0.009308	-0.011749	-0.11383	0.013733	0.008087	0.15579	-0.020905	0.10696	-0.008087	0.075989	0.093231	0.044403	0.007782	0.019684	-0.34393	-0.16098	0.38101	-0.06958	0.088043	0.15015	-0.10056	0.028839	-0.010071	0.075531	-0.002136	-0.13092	0.11108	0.014191	-0.005493
42.105	-0.008698	0.53909	-0.034485	0.005798	0.00824	-0.093842	0.023193	0.002136	0.15228	0.005188	0.13306	-0.017395	0.025787	0.072937	0.079956	0.008392	0	-0.34195	0.021973	0.36377	0.002899	-0.023041	0.099335	-0.052643	0.016632	-0.007629	0.057678	-0.003662	-0.020142	0.13062	-0.000458	-0.005951
42.106	0.017853	0.55359	-0.044098	-0.007324	-0.020905	-0.083923	0.036163	0.008545	0.15396	-0.014496	0.094604	-0.013885	0.027618	0.064392	0.072937	-0.000916	0.006714	-0.29434	0.23132	0.20386	0.11231	-0.069733	0.068359	-0.091858	0.011749	-0.004272	0.052948	-0.002899	-0.062714	0.097809	0.002594	0.001678
42.107	0.022278	0.59189	-0.017548	0.009918	0.053558	-0.10864	0.022125	0.004578	0.15503	-0.037537	-0.10773	-0.003662	0.039215	0.00824	0.066833	0.003204	0.035248	-0.29785	0.39261	0.069733	0.13184	0.001221	0.11658	-0.15243	-0.042572	-0.008545	0.11124	0.000153	-0.036469	0.018768	-0.000916	-0.007477
42.108	0.015259	0.61264	-0.018921	-0.00473	0.024719	-0.10071	0.019836	0.000305	0.14465	-0.040588	0.022888	-0.006561	0.003662	0.05127	0.029755	-0.024872	0.029144	-0.37857	0.0354	-0.002441	0.14862	0.021973	0.12711	-0.13489	-0.027313	-0.009766	0.12039	-0.004578	0.012207	-0.015717	-0.000916	-0.001373
42.109	0.016022	0.61645	0.023956	0.013733	-0.006561	-0.084381	0.006714	0.009308	0.15808	-0.041809	-0.010223	-0.032196	0.016632	0.024414	0.17364	-0.0177	0.026245	-0.36438	-0.23086	0.006104	-0.002136	0.010986	0.08316	-0.028534	-0.0177	-0.013123	0.30548	-0.005035	-0.063934	-0.036316	-0.002594	-0.00885
42.11	0.017853	0.62576	0.07782	0.01297	-0.017242	-0.10651	-0.000153	-0.002899	0.15549	-0.05722	-0.071106	-0.006104	0.06012	-0.03067	0.10254	0.00351	-0.009155	-0.3865	-0.20432	-0.011139	-0.042114	-0.063324	-0.055389	0.081329	0.087891	-0.013733	0.34271	0.001984	-0.094299	0.009766	-0.001678	-0.010223
42.111	0.011902	0.66635	0.092621	0.006866	0.008698	-0.098114	0.003357	0.004425	0.14938	-0.056305	-0.14587	0.009003	0.081787	-0.053101	0.098114	-0.004272	-0.027771	-0.38498	0.037537	-0.040283	-0.004883	-0.046234	-0.27435	0.17792	0.19257	-0.011597	0.46768	-0.010529	-0.084381	0.032806	-0.001068	-0.016937
42.112	0.018768	0.62576	0.076752	-0.004578	0.079956	-0.078735	0.002441	0.00351	0.14343	-0.066681	0.011292	-0.00885	0.057068	-0.042114	0.035095	0.006561	-0.01236	-0.39993	0.12329	-0.085297	0.068512	-0.050964	-0.20371	0.095062	0.13916	-0.013428	0.52078	-0.007782	-0.040588	0.00946	0	-0.016327
42.113	0.017242	0.66345	0.05249	0.019226	0.082092	-0.082245	0.013885	-0.001068	0.15549	-0.061493	-0.045319	0.00351	0.045776	0.060425	-0.014343	0.002899	0.007935	-0.40237	0.14664	-0.14023	0.14526	-0.010681	-0.096588	0.11475	0.14557	-0.00885	-0.060425	-0.011597	-0.000305	-0.062561	0.000458	-0.009918
42.114	0.017395	0.62805	-0.016022	0.009155	0.036163	-0.047607	-0.000763	0.007019	0.15137	-0.082855	0.020447	-0.00885	0.059509	0.077515	0.018005	-0.022278	0.010223	-0.45807	-0.16235	-0.10346	0.070038	-0.066528	-0.065155	0.12772	0.12726	0.002747	-0.26016	-0.002289	0.059204	-0.097198	-0.005493	-0.003052
42.115	0.015717	0.61966	-0.07019	-0.003357	0.005798	-0.046387	0.003662	0.006256	0.14374	-0.088501	0.03952	0.00061	0.036926	-0.048065	-0.046387	-0.000305	0.015564	-0.44296	-0.15427	-0.054474	-0.023041	-0.068207	-0.004272	0.1059	0.080109	-0.001831	-0.37247	-0.003815	0.081024	-0.097046	0.001526	-0.004883
42.116	0.020294	0.58777	-0.081024	0.010223	-0.035248	-0.072174	0.004578	-0.002747	0.15106	-0.053558	-0.032043	-0.006866	0.023804	0.007629	-0.011749	0.004272	-0.005188	-0.41672	0.13184	0.035858	-0.16571	0.028229	-0.000305	0.10483	0.023346	-0.00351	-0.53802	-0.002594	0.013123	-0.005188	0.002289	-0.001678
42.117	0.008698	0.58533	-0.056	0.003204	-0.043335	-0.092926	-0.00824	0.006561	0.14236	-0.053711	-0.12451	-0.018616	0.042419	0.090485	-0.003052	0.000916	-0.024719	-0.43198	0.22781	0.16113	-0.040741	0.039978	0.045013	0.030365	-0.011444	-0.007629	-0.32837	-0.003967	-0.015717	0.008087	-0.005188	-0.001068
42.118	0.00473	0.57022	-0.046387	-0.007172	-0.014038	-0.13031	-0.001526	-0.001068	0.13046	-0.038757	-0.058289	-0.008392	0.053101	0.13199	0.059509	-0.000916	-0.007629	-0.43396	-0.19638	0.14542	0.071259	-0.004883	0.10147	0.033264	-0.022583	0.001526	-0.15366	-0.008698	0.05127	-0.032349	-0.00061	-0.007629
42.119	0.006714	0.50751	0.002289	-0.001831	0.016174	-0.10483	-0.019836	0.002441	0.12863	-0.042725	-0.02121	-0.016479	0.05188	0.028076	-0.009155	-0.008698	0.00885	-0.43503	-0.56061	0.071106	0.019379	-0.02533	0.064697	-0.029755	-0.013885	-0.004425	-0.074005	-0.001526	0.016785	-0.086517	-0.00061	-0.001373
42.12	0.008545	0.47867	-0.022583	-0.010223	0.027008	-0.068817	-0.005188	-0.002136	0.12634	-0.050201	0.010529	-0.010376	0.042725	-0.078125	-0.054321	-0.004425	0.001068	-0.43411	-0.27161	-0.001678	0.000153	-0.026855	-0.12009	-0.00824	0.021515	-0.000763	0.10803	-0.00885	-0.059967	-0.042572	-0.001678	-0.003357
42.121	0.01236	0.44952	-0.032196	0.001526	0.045929	-0.030823	-0.008087	-0.010986	0.12344	-0.024567	0.022888	0.003204	0.046692	-0.066071	-0.10971	0.00061	0.007782	-0.44357	0.17319	-0.11047	-0.005341	0.00412	-0.098877	0.042114	0.001068	-0.004883	0.1413	-0.003662	-0.11414	-0.059814	0.001373	-0.012054
42.122	0.021515	0.44693	-0.060577	0.005188	0.015564	-0.035553	-0.021667	0.003052	0.11475	-0.003204	0.019531	-0.010986	0.033722	-0.080414	-0.095215	0.002747	0.010834	-0.41458	0.63812	-0.1062	-0.04364	-0.036163	0.099335	0.11719	0.024414	-0.012817	0.11993	-0.009918	-0.14053	-0.02243	-0.001068	-0.00885
42.123	0.012665	0.42648	-0.033417	0.006104	-0.059967	-0.074921	-0.026093	-0.006561	0.12177	-0.023346	-0.033875	-0.003052	0.041962	-0.15228	-0.065002	-0.006409	0.010681	-0.40283	0.56107	-0.049133	-0.020142	-0.027466	0.13168	0.087891	0.087433	-0.008392	0.30807	-0.005951	-0.087433	0.021057	0.00351	-0.00946
42.124	0.019226	0.37231	-0.041809	0.01297	-0.015564	-0.038605	-0.025635	0.004883	0.11124	-0.049133	-0.031738	-0.00946	0.032349	-0.24078	-0.016479	-0.013275	0.013275	-0.45364	0.10895	-0.007172	-0.016785	0.010681	0.14496	0.0354	0.007477	-0.016937	0.32623	-0.003204	-0.044708	0.19882	0.001373	-0.005035
42.125	0.015259	0.36209	-0.018768	0.014343	0.018921	0.018616	-0.011749	0.001984	0.10132	-0.049133	-0.020447	-0.008087	0.03067	-0.083466	0.017548	-0.014343	0.009918	-0.4567	0.021973	0.0737	-0.03067	0.025787	0.10117	-0.002289	-0.039368	-0.009155	0.25894	-0.007935	-0.050201	0.13092	-0.004883	-0.007477
42.126	0.010986	0.35889	-0.000458	0.001068	0.049438	0.026398	-0.007935	-0.00473	0.1004	-0.045166	-0.00824	0.005188	0.027161	0.01358	0.022736	-0.015411	0.001678	-0.45807	-0.058441	0.04425	-0.015717	0.011444	-0.02655	-0.092773	-0.028687	-0.009308	0.20248	-0.005493	-0.1767	0.02182	-0.001831	-0.01358
42.127	0.018158	0.30624	-0.0177	0.00885	0.01709	0.043945	-0.013733	0.003357	0.089111	-0.050964	0.000916	-0.009308	0.028229	0.013733	0.036316	-0.009155	0.006866	-0.44601	-0.19577	0.058136	-0.021973	0.018005	-0.26321	-0.041962	-0.096741	-0.020447	0.1178	-0.00885	0.070343	-0.002594	-0.000305	-0.006561
42.128	0.011597	0.27023	-0.040741	-0.010681	0.003815	0.009003	0.000916	-0.005188	0.10742	-0.053406	0.009155	-0.003204	0.033417	0.035553	0.043335	0.008698	0.00351	-0.45853	-0.06073	0.000458	-0.019379	0.00473	-0.25818	0.084686	-0.12833	-0.011902	0.14008	-0.007172	0.58227	-0.04425	-0.001221	-0.012817
